<svg width="402" height="347" viewBox="0 0 402 347" fill="none" xmlns="http://www.w3.org/2000/svg">
<path d="M222.7 277.974C212.461 293.141 190.902 261.602 202.372 199.442C206.567 196.456 217.272 190.527 226.53 190.7C235.789 190.873 245.436 205.681 249.102 213.064C243.714 229.645 230.891 265.841 222.7 277.974Z" fill="#AA8080"/>
<path d="M158.913 42.1541C184.558 37.2412 205.363 44.701 202.75 85.1831C204.895 84.0437 210.292 83.4196 214.723 90.0386C220.262 98.3125 213.711 122.047 208.274 128.965C202.836 135.883 181.744 149.811 164.431 145.07C147.117 140.329 141.598 103.575 152.93 148.687C163.087 189.125 89.5546 149.65 106.985 172.911C121.353 192.085 111.104 201.665 100.234 189.872C95.8903 200.383 135.924 214.92 122.755 212.004C110.896 209.378 128.808 222.413 108.722 222.739C88.6361 223.065 155.779 260.826 151.299 257.543C146.819 254.26 167.126 237.208 156.86 218.017C146.594 198.827 181.362 228.056 176.535 245.828C171.709 263.6 112.349 301.979 99.812 263.236C93.6512 244.197 71.321 228.65 64.6229 227.78C92.6055 207.578 54.0159 146.415 47.5656 137.436C41.1153 128.457 70.9171 115.084 81.5281 117.324C97.378 110.936 126.431 109.328 118.276 83.3439C108.082 50.8636 133.267 47.067 158.913 42.1541Z" fill="black"/>
<path d="M260.566 272.039C255.537 270.24 254.758 267.216 232.364 246.915C225.612 225.956 221.085 207.866 214.395 191.592C203.803 165.823 185.618 152.047 192.48 117.588C205.245 53.4852 266.018 67.0268 285.697 70.2589C305.376 73.4909 334.384 118.259 341.209 137.569C348.035 156.88 338.584 182.298 337.574 185.76C336.565 189.223 266.852 274.289 260.566 272.039Z" fill="#B28F84"/>
<path fill-rule="evenodd" clip-rule="evenodd" d="M251.107 139.895C247.835 111.895 279.041 125.778 295.053 136.219C312.916 144.92 336.538 151.498 314.844 122.957C323.753 125.08 341.774 131.849 342.59 141.937C343.382 151.726 341.767 166.827 340.783 173.746C340.67 173.882 340.638 174.084 340.694 174.357C341.636 178.972 335.48 188.976 332.285 193.401L332.928 215.709C331.187 220.28 327.62 229.855 327.277 231.592C326.934 233.328 321.081 220.395 318.198 213.711L309.452 224.101C308.588 224.266 308.061 226.074 312.871 231.984C315.075 234.691 314.911 239.595 314.768 243.878C314.52 251.285 314.334 256.839 326.551 245.989C337.879 235.929 338.385 220.698 338.801 208.205C339.092 199.43 339.339 192.004 343.26 188.67C347.805 184.803 347.219 188.455 353.93 193.235C361.247 198.447 365.035 197.864 371.138 193.003C377.074 188.274 373.542 185.191 367.225 179.676C361.092 174.323 363.221 173.646 357.952 159.98C349.395 137.785 337.237 104.969 332.228 91.3355C319.07 81.3783 285.455 61.9826 256.267 64.0578C252.715 61.8871 247.694 61.1579 244.71 57.4766C235.851 46.5465 221.643 53.9648 191.394 69.4819C179.8 75.4295 155.244 119.257 165.329 144.61C170.339 157.203 174.851 168.547 176.356 175.703C179.984 192.955 211.552 199.945 226.883 201.284C222.333 188.41 214.863 157.628 221.386 137.492C227.909 117.356 247.273 162.151 256.14 187.065C255.825 183.008 254.378 167.895 251.107 139.895ZM359.568 183.078C351.137 177.723 343.176 173.177 341.158 173.551C342.618 171.248 339.515 159.523 341.955 163.664C343.297 165.942 354.027 179.084 359.568 183.078Z" fill="black"/>
</svg>
